<svg width="1440" height="209" viewBox="0 0 1440 209" fill="none" xmlns="http://www.w3.org/2000/svg"><path opacity=".25" d="M32.7 8.823l66.896 30.67 18.544-9.59 43.407 18.617 69.427-29.9 16.197 6.768 24.948-15.232 46.209 22.568 57.34-23.13 50.715 22.002 86.098-25.95 34.736 26.515 25.481-8.463 55.635 38.736L729.282 6.767l99.112 50.78 50.756-24.306 68.942 11.895 42.429-31.596 12.999 3.948L1026.05 0l40.44 18.053 20.52-5.642 13.48 6.424 28.53-17.143 44.63 32.157 22.13-9.027 13.03 7.898 20.95-11.284 60.64 29.336 45.48-33.286 53.52-12.41 32.1 28.598 18.5-8.283V194.959c0 33.318-423.34-3.116-423.34-3.116H462.428L0 154.029V25.391L32.7 8.824z" fill="url(#paint0_linear)"/><defs><linearGradient id="paint0_linear" x1="722.001" y1="-6.769" x2="722.001" y2="206.651" gradientUnits="userSpaceOnUse"><stop stop-color="#283670"/><stop offset="1" stop-color="#18224D" stop-opacity="0"/></linearGradient></defs></svg>