<svg width="2532" height="367" viewBox="0 0 2532 367" fill="none" xmlns="http://www.w3.org/2000/svg"><path d="M2474.5 15.494l-117.62 53.854-32.61-16.84-76.32 32.692-122.08-52.505-28.48 11.886-43.87-26.747-81.25 39.628-100.82-40.615-89.17 38.636-151.39-45.57-61.08 46.561-44.8-14.86-97.83 68.019-177.5-97.751-174.27 89.17-89.248-42.681-121.224 20.888-74.604-55.483-22.85 6.933L727.862 0l-71.103 31.7-36.082-9.907-23.703 11.28L546.81 2.972l-78.469 56.467-38.918-15.852-22.906 13.87-36.851-19.815-106.625 51.514-79.97-58.45L88.969 8.912l-56.44 50.22L0 44.584V342.344c0 58.505 744.372-5.471 744.372-5.471H1718.9l813.1-66.402V44.585l-57.5-29.091z" fill="url(#paint0_linear)"/><defs><linearGradient id="paint0_linear" x1="1262.48" y1="-11.886" x2="1262.48" y2="362.875" gradientUnits="userSpaceOnUse"><stop stop-color="#283670"/><stop offset="1" stop-color="#18224D" stop-opacity="0"/></linearGradient></defs></svg>